<svg xmlns="http://www.w3.org/2000/svg" version="1.1" xmlns:xlink="http://www.w3.org/1999/xlink" xmlns:svgjs="http://svgjs.dev/svgjs" width="1500" height="1013" viewBox="0 0 1500 1013"><g transform="matrix(1,0,0,1,0.5261164342562097,10.118982980137844)"><svg viewBox="0 0 367 248" data-background-color="#ffffff" preserveAspectRatio="xMidYMid meet" height="1013" width="1500" xmlns="http://www.w3.org/2000/svg" xmlns:xlink="http://www.w3.org/1999/xlink"><g id="tight-bounds" transform="matrix(1,0,0,1,-0.12872315424800718,0.9061014357935449)"><svg viewBox="0 0 367.257446308496 247.2" height="247.2" width="367.257446308496"><g><svg viewBox="0 0 395.52 266.2234489259916" height="247.2" width="367.257446308496"><g transform="matrix(1,0,0,1,0,186.43738114977342)"><svg viewBox="0 0 395.52 79.78606777621816" height="79.78606777621816" width="395.52"><g id="textblocktransform"><svg viewBox="0 0 395.52 79.78606777621816" height="79.78606777621816" width="395.52" id="textblock"><g><svg viewBox="0 0 395.52 79.78606777621816" height="79.78606777621816" width="395.52"><g transform="matrix(1,0,0,1,0,0)"><svg width="395.52" viewBox="3 -40.3 249.33 50.3" height="79.78606777621816" data-palette-color="#d7dbde"><path d="M15.5 0.8Q9.05 0.8 6.03-3.13 3-7.05 3-15.05L3-15.05Q3-23.05 6.03-26.93 9.05-30.8 15.5-30.8L15.5-30.8Q21.95-30.8 24.98-26.93 28-23.05 28-15.05L28-15.05Q28-7.05 24.98-3.13 21.95 0.8 15.5 0.8L15.5 0.8ZM15.5-4.1Q18.35-4.1 19.93-5.1 21.5-6.1 22.15-8.43 22.8-10.75 22.8-15L22.8-15Q22.8-19.25 22.15-21.58 21.5-23.9 19.93-24.9 18.35-25.9 15.5-25.9L15.5-25.9Q12.65-25.9 11.08-24.9 9.5-23.9 8.85-21.58 8.2-19.25 8.2-15L8.2-15Q8.2-10.75 8.85-8.43 9.5-6.1 11.08-5.1 12.65-4.1 15.5-4.1L15.5-4.1ZM47.25-30.6Q52.85-30.6 55.57-26.85 58.3-23.1 58.3-15.05L58.3-15.05Q58.3-7.45 55.37-3.53 52.45 0.4 47 0.4L47 0.4Q44.95 0.4 43.07-0.6 41.2-1.6 40.2-3.25L40.2-3.25 40.2 2.5 40.55 10 34.85 10 35.2 2.5 35.2-22.55 34.85-30 39.55-30 39.8-28.35Q42.6-30.6 47.25-30.6L47.25-30.6ZM46.45-4.4Q50-4.4 51.55-6.85 53.1-9.3 53.1-15.05L53.1-15.05Q53.1-19.25 52.42-21.55 51.75-23.85 50.22-24.8 48.7-25.75 46-25.75L46-25.75Q42.25-25.75 40.2-24.7L40.2-24.7 40.2-6.55Q42.2-4.4 46.45-4.4L46.45-4.4ZM76.7 0.6Q70.05 0.6 67.17-3.33 64.3-7.25 64.3-15.05L64.3-15.05Q64.3-22.65 67.34-26.73 70.39-30.8 76.7-30.8L76.7-30.8Q82.65-30.8 85.52-27.68 88.4-24.55 88.9-17.55L88.9-17.55 87.65-12.75 69.59-12.75Q69.7-9.65 70.47-7.83 71.25-6 72.95-5.1 74.65-4.2 77.65-4.2L77.65-4.2Q80.7-4.2 83.12-4.88 85.55-5.55 87.2-6.75L87.2-6.75 88.05-6.35 86.95-1.95Q85.09-0.6 82.75 0 80.4 0.6 76.7 0.6L76.7 0.6ZM69.55-16.95L83.7-16.95Q83.7-21.75 82.12-23.83 80.55-25.9 76.9-25.9L76.9-25.9Q74.25-25.9 72.67-25.03 71.09-24.15 70.37-22.2 69.64-20.25 69.55-16.95L69.55-16.95ZM112.04 0L112.39-7.5 112.39-20.7Q112.39-25.8 107.84-25.8L107.84-25.8Q105.94-25.8 103.84-24.73 101.74-23.65 100.64-21.9L100.64-21.9 100.64-7.5 100.99 0 95.29 0 95.64-7.5 95.64-22.75 95.29-30 99.64-30 100.64-26Q101.99-28.05 104.47-29.2 106.94-30.35 109.79-30.35L109.79-30.35Q113.34-30.35 115.37-28.13 117.39-25.9 117.39-21.85L117.39-21.85 117.39-7.5 117.74 0 112.04 0ZM136.34 0.8Q124.34 0.8 124.34-14.75L124.34-14.75Q124.34-22.4 127.42-26.5 130.49-30.6 136.49-30.6L136.49-30.6Q139.64-30.6 141.52-30.08 143.39-29.55 145.14-28.25L145.14-28.25 144.34-23.8 143.54-23.45Q142.34-24.65 140.84-25.18 139.34-25.7 137.09-25.7L137.09-25.7Q133.09-25.7 131.32-23.1 129.54-20.5 129.54-14.75L129.54-14.75Q129.54-10.85 130.29-8.55 131.04-6.25 132.74-5.2 134.44-4.15 137.34-4.15L137.34-4.15Q139.89-4.15 141.44-4.7 142.99-5.25 144.74-6.7L144.74-6.7 145.59-6.3 144.49-1.85Q142.54-0.35 140.79 0.23 139.04 0.8 136.34 0.8L136.34 0.8ZM162.89 0.8Q150.89 0.8 150.89-14.75L150.89-14.75Q150.89-22.4 153.96-26.5 157.04-30.6 163.04-30.6L163.04-30.6Q166.19-30.6 168.06-30.08 169.94-29.55 171.69-28.25L171.69-28.25 170.89-23.8 170.09-23.45Q168.89-24.65 167.39-25.18 165.89-25.7 163.64-25.7L163.64-25.7Q159.64-25.7 157.86-23.1 156.09-20.5 156.09-14.75L156.09-14.75Q156.09-10.85 156.84-8.55 157.59-6.25 159.29-5.2 160.99-4.15 163.89-4.15L163.89-4.15Q166.44-4.15 167.99-4.7 169.54-5.25 171.29-6.7L171.29-6.7 172.14-6.3 171.04-1.85Q169.09-0.35 167.34 0.23 165.59 0.8 162.89 0.8L162.89 0.8ZM178.34 0L178.69-7.5 178.69-32.75 178.34-40 184.04-40 183.69-32.75 183.69-7.5 184.04 0 178.34 0ZM194.68-34.55Q193.23-34.55 192.23-35.35 191.23-36.15 191.23-37.4L191.23-37.4Q191.23-38.65 192.23-39.48 193.23-40.3 194.68-40.3L194.68-40.3Q196.08-40.3 197.08-39.48 198.08-38.65 198.08-37.4L198.08-37.4Q198.08-36.15 197.08-35.35 196.08-34.55 194.68-34.55L194.68-34.55ZM191.83 0L192.13-7.5 192.13-22.75 191.83-30 197.48-30 197.13-22.75 197.13-7.5 197.48 0 191.83 0ZM222.03 0L222.38-7.5 222.38-20.7Q222.38-25.8 217.83-25.8L217.83-25.8Q215.93-25.8 213.83-24.73 211.73-23.65 210.63-21.9L210.63-21.9 210.63-7.5 210.98 0 205.28 0 205.63-7.5 205.63-22.75 205.28-30 209.63-30 210.63-26Q211.98-28.05 214.46-29.2 216.93-30.35 219.78-30.35L219.78-30.35Q223.33-30.35 225.36-28.13 227.38-25.9 227.38-21.85L227.38-21.85 227.38-7.5 227.73 0 222.03 0ZM234.33-25.3L234.33-28.55 237.53-30 239.03-36.25 242.53-36.25 242.53-30 251.08-30 251.08-25.3 242.53-25.3 242.53-8.8Q242.53-6.45 243.38-5.38 244.23-4.3 246.03-4.3L246.03-4.3Q247.73-4.3 249.28-5 250.83-5.7 251.58-6.8L251.58-6.8 252.33-6.5 251.23-2.2Q248.43 0.6 244.93 0.6L244.93 0.6Q241.08 0.6 239.3-1.78 237.53-4.15 237.53-9.6L237.53-9.6 237.53-25.3 234.33-25.3Z" opacity="1" transform="matrix(1,0,0,1,0,0)" fill="#d7dbde" class="wordmark-text-0" data-fill-palette-color="primary" id="text-0"></path></svg></g></svg></g></svg></g></svg></g><g transform="matrix(1,0,0,1,113.14244965382704,0)"><svg viewBox="0 0 169.2351006923459 167.60180541343493" height="167.60180541343493" width="169.2351006923459"><g><svg xmlns="http://www.w3.org/2000/svg" data-name="Layer 1" viewBox="0.5 1 99 98.04454671666409" x="0" y="0" height="167.60180541343493" width="169.2351006923459" class="icon-icon-0" data-fill-palette-color="accent" id="icon-0"><path d="M89.23 31.89H61.89V11.23A10.28 10.28 0 0 0 51.63 1H10.77A10.28 10.28 0 0 0 0.5 11.23V44.67A10.28 10.28 0 0 0 10.77 54.94H15.17V65.61A2.5 2.5 0 0 0 19.44 67.38L31.9 54.94H38.11V75.6A10.28 10.28 0 0 0 48.38 85.87H68.1L80.56 98.31A2.5 2.5 0 0 0 84.83 96.54V85.87H89.23A10.28 10.28 0 0 0 99.5 75.6V42.16A10.28 10.28 0 0 0 89.23 31.89M30.86 49.89A2.5 2.5 0 0 0 29.09 50.62L20.17 59.53V52.44A2.5 2.5 0 0 0 17.67 49.94H10.77A5.28 5.28 0 0 1 5.5 44.67V11.23A5.27 5.27 0 0 1 10.77 6H51.63A5.27 5.27 0 0 1 56.9 11.27V31.89H48.37A10.26 10.26 0 0 0 39.67 36.74 18.2 18.2 0 0 1 35.48 35.12 19.76 19.76 0 0 0 40.83 22.28H43.83A2.5 2.5 0 0 0 43.83 17.28H33.7V13.42A2.5 2.5 0 1 0 28.7 13.42V17.28H18.58A2.5 2.5 0 0 0 18.58 22.28H35.83A14.86 14.86 0 0 1 31.45 32.12 15.35 15.35 0 0 1 28 26.71 2.5 2.5 0 1 0 23.32 28.46 20.3 20.3 0 0 0 27.45 35.12 18 18 0 0 1 23.26 36.74L21.54 37.17A2.5 2.5 0 1 0 22.69 42L24.41 41.57A22.9 22.9 0 0 0 31.41 38.5 23 23 0 0 0 38.11 41.5V49.94ZM94.5 75.6A5.27 5.27 0 0 1 89.23 80.87H82.33A2.5 2.5 0 0 0 79.83 83.37V90.51L70.9 81.6A2.5 2.5 0 0 0 69.13 80.87H48.38A5.28 5.28 0 0 1 43.11 75.6V42.16A5.27 5.27 0 0 1 48.38 36.89H89.23A5.27 5.27 0 0 1 94.5 42.16Z" fill="#f84e45" data-fill-palette-color="accent"></path><circle cx="68.8" cy="58.48" r="2.5" fill="#f84e45" data-fill-palette-color="accent"></circle><circle cx="58.07" cy="58.48" r="2.5" fill="#f84e45" data-fill-palette-color="accent"></circle><circle cx="79.53" cy="58.48" r="2.5" fill="#f84e45" data-fill-palette-color="accent"></circle></svg></g></svg></g><g></g></svg></g><defs></defs></svg><rect width="367.257446308496" height="247.2" fill="none" stroke="none" visibility="hidden"></rect></g></svg></g></svg>